# xmcd CD database file
#
# Track frame offsets:
#	150
#	49581
#	69136
#	80492
#	91335
#	103465
#	115003
#	125383
#	143249
#	157501
#	176502
#	194472
#	215487
#	238140
#	251181
#	266616
#	278105
#	302691
#	323224
#
# Disc length: 4414 seconds
#
# Revision: 0
# Processed by: cddbd v1.5PL3 Copyright (c) Steve Scherf et al.
# Submitted via: CDex 1.51
#
DISCID=0c113c13
DTITLE=Blues For The Nightfever - Blues For The Nightfever
DYEAR=1900
DGENRE=Jazz
TTITLE0=John Coltrane/ Impressions
TTITLE1=John Mayall/ Tears in my Fears
TTITLE2=John Mayall/ Steppin Out
TTITLE3=Junior Parker/ Mystery Train
TTITLE4=Junior Parker/ Sitting and Thinking
TTITLE5=Junior Parker/ Sweet Home Chicago
TTITLE6=Junior Parker/ Yonders Ball
TTITLE7=Lester Young/ Back to the Land
TTITLE8=Lester Young/ Encore
TTITLE9=Lester Young/ Mean to Me
TTITLE10=Little Walter/ Maybe the Last Time
TTITLE11=Lonnie Brooks/ Its a dirty Job
TTITLE12=Lonnie Brooks/ Too Little Too Late
TTITLE13=Ruth Brown/ I Don't Know
TTITLE14=Phil Woods/ Waltz for Debby
TTITLE15=Slim Harpo/ Mohair Sam
TTITLE16=Stanley Turrentine/ Jumpin Blues
TTITLE17=Stanley Turrentine/ Midnight and You
TTITLE18=Tony Mottola/ Fun and the Frets
EXTD=
EXTT0=
EXTT1=
EXTT2=
EXTT3=
EXTT4=
EXTT5=
EXTT6=
EXTT7=
EXTT8=
EXTT9=
EXTT10=
EXTT11=
EXTT12=
EXTT13=
EXTT14=
EXTT15=
EXTT16=
EXTT17=
EXTT18=
PLAYORDER=
